<svg width="32" height="32" viewBox="0 0 32 32" fill="none" xmlns="http://www.w3.org/2000/svg">
<g clip-path="url(#clip0_2236_8809)">
<path fill-rule="evenodd" clip-rule="evenodd" d="M5.93638 19.663C2.78988 19.6622 0.21582 17.0876 0.21582 13.941C0.21582 10.7939 2.7907 8.21902 5.93782 8.21902L10.863 8.21909C10.863 11.987 10.9908 15.9433 10.863 19.663H5.93638ZM10.9356 21.8292C11.0344 22.7781 11.2253 23.7182 11.5239 24.6155C11.9757 25.9733 12.704 27.3045 13.7754 28.2725C13.9816 28.4589 14.0626 28.7202 14.0086 28.9915L13.5321 31.3871C13.4808 31.6451 13.3184 31.8423 13.0742 31.9407C12.8227 32.042 12.5752 32.013 12.3531 31.8585C10.5893 30.6308 9.30107 28.8268 8.45895 26.8682C7.77395 25.2751 7.3692 23.5611 7.20882 21.8292H10.9356ZM13.0292 7.96552V19.8717C19.1172 21.1968 24.18 24.8327 29.0175 27.8476C29.6031 28.2127 30.339 27.9828 30.9068 27.6073C31.4747 27.2318 31.7847 26.6711 31.7847 26.019V1.9794C31.7847 1.32958 31.4769 0.770522 30.9122 0.39471C30.3474 0.0189599 29.6556 -0.139103 29.0302 0.146647C24.6365 2.15546 19.0414 6.38565 13.0292 7.96552Z" fill="#2F80ED"/>
</g>
<defs>
<clipPath id="clip0_2236_8809">
<rect width="32" height="32" fill="white"/>
</clipPath>
</defs>
</svg>
