<svg width="30" height="30" viewBox="0 0 30 30" fill="none" xmlns="http://www.w3.org/2000/svg">
<g clip-path="url(#clip0_2236_8796)">
<path d="M10.5425 5.91821C9.94424 5.91821 9.1964 6.06769 8.59818 6.36672C8.89733 6.66576 9.04687 6.96472 9.04687 7.41323C9.04687 8.31025 8.29903 8.90824 7.55126 8.90824C7.10258 8.90824 6.80343 8.75876 6.50435 8.45973C6.2052 9.05772 6.05566 9.80527 6.05566 10.4033C6.05566 12.9448 8.14956 14.8884 10.5425 14.8884C13.0851 14.8884 15.0294 12.7953 15.0294 10.4033C15.0293 8.01122 13.085 5.91821 10.5425 5.91821Z" fill="#2F80ED"/>
<path d="M29.0884 24.7556L22.358 17.8785L21.3111 18.925L19.0677 16.6824C20.2642 14.8884 21.012 12.7953 21.012 10.4033C21.012 5.32017 16.9738 0.83505 11.8887 0.0875072C4.85924 -0.809516 -1.12323 5.32017 0.222832 12.4964C0.970667 16.6824 4.41056 19.9716 8.59835 20.719C11.7392 21.317 14.5808 20.42 16.8243 18.7755L19.0677 21.0181L18.0208 22.2141L24.7511 29.0913C25.9476 30.2873 27.8919 30.2873 28.9388 29.0913C30.2849 27.7457 30.2849 25.9516 29.0884 24.7556ZM10.5426 17.8784C6.35491 17.8784 3.06449 14.5894 3.06449 10.4032C3.06449 6.21705 6.35484 2.92806 10.5426 2.92806C14.7304 2.92806 18.0208 6.21712 18.0208 10.4033C18.0208 14.5894 14.7304 17.8784 10.5426 17.8784Z" fill="#2F80ED"/>
</g>
<defs>
<clipPath id="clip0_2236_8796">
<rect width="30" height="29.9883" fill="white"/>
</clipPath>
</defs>
</svg>
