<svg width="36" height="36" viewBox="0 0 36 36" fill="none" xmlns="http://www.w3.org/2000/svg">
<g clip-path="url(#clip0_2402_3177)">
<path d="M31.3467 4.81641H4.65328C2.55234 4.81641 0.84375 6.75914 0.84375 9.14766V9.73828H35.1562V9.14766C35.1562 6.75914 33.4477 4.81641 31.3467 4.81641ZM5.51953 8.71875C5.28312 8.71875 5.05202 8.64865 4.85545 8.5173C4.65888 8.38596 4.50568 8.19928 4.41521 7.98086C4.32474 7.76245 4.30106 7.52211 4.34719 7.29024C4.39331 7.05838 4.50715 6.84539 4.67432 6.67822C4.84149 6.51106 5.05447 6.39721 5.28634 6.35109C5.51821 6.30497 5.75854 6.32864 5.97696 6.41911C6.19537 6.50958 6.38205 6.66279 6.5134 6.85936C6.64474 7.05593 6.71484 7.28703 6.71484 7.52344C6.71484 7.84045 6.58891 8.14449 6.36474 8.36865C6.14058 8.59282 5.83655 8.71875 5.51953 8.71875ZM9.03516 8.71875C8.79875 8.71875 8.56764 8.64865 8.37108 8.5173C8.17451 8.38596 8.0213 8.19928 7.93083 7.98086C7.84036 7.76245 7.81669 7.52211 7.86281 7.29024C7.90893 7.05838 8.02278 6.84539 8.18994 6.67822C8.35711 6.51106 8.57009 6.39721 8.80196 6.35109C9.03383 6.30497 9.27417 6.32864 9.49258 6.41911C9.711 6.50958 9.89768 6.66279 10.029 6.85936C10.1604 7.05593 10.2305 7.28703 10.2305 7.52344C10.2305 7.84045 10.1045 8.14449 9.88037 8.36865C9.65621 8.59282 9.35217 8.71875 9.03516 8.71875ZM12.5508 8.71875C12.3144 8.71875 12.0833 8.64865 11.8867 8.5173C11.6901 8.38596 11.5369 8.19928 11.4465 7.98086C11.356 7.76245 11.3323 7.52211 11.3784 7.29024C11.4246 7.05838 11.5384 6.84539 11.7056 6.67822C11.8727 6.51106 12.0857 6.39721 12.3176 6.35109C12.5495 6.30497 12.7898 6.32864 13.0082 6.41911C13.2266 6.50958 13.4133 6.66279 13.5446 6.85936C13.676 7.05593 13.7461 7.28703 13.7461 7.52344C13.7461 7.84045 13.6202 8.14449 13.396 8.36865C13.1718 8.59282 12.8678 8.71875 12.5508 8.71875ZM30.6562 8.54297H18.6328C18.3624 8.54297 18.1031 8.43555 17.9119 8.24436C17.7207 8.05316 17.6133 7.79383 17.6133 7.52344C17.6133 7.25304 17.7207 6.99372 17.9119 6.80252C18.1031 6.61132 18.3624 6.50391 18.6328 6.50391H30.6562C30.9266 6.50391 31.186 6.61132 31.3772 6.80252C31.5684 6.99372 31.6758 7.25304 31.6758 7.52344C31.6758 7.79383 31.5684 8.05316 31.3772 8.24436C31.186 8.43555 30.9266 8.54297 30.6562 8.54297Z" fill="#2F80ED"/>
<path d="M4.65328 31.1836H31.3467C32.3568 31.1827 33.3252 30.781 34.0394 30.0668C34.7537 29.3526 35.1553 28.3841 35.1562 27.3741V10.582H0.84375V27.3741C0.844681 28.3841 1.24634 29.3526 1.96056 30.0668C2.67479 30.781 3.64322 31.1827 4.65328 31.1836ZM20.2148 26.3363C20.2141 26.9038 19.9883 27.4479 19.5869 27.8491C19.1855 28.2504 18.6414 28.476 18.0738 28.4766H17.9297C17.3621 28.476 16.818 28.2504 16.4166 27.8491C16.0152 27.4479 15.7894 26.9038 15.7887 26.3363V22.6012C15.7894 22.0337 16.0152 21.4896 16.4166 21.0884C16.818 20.6871 17.3621 20.4615 17.9297 20.4609H18.0773C18.6449 20.4615 19.189 20.6871 19.5904 21.0884C19.9918 21.4896 20.2176 22.0337 20.2184 22.6012L20.2148 26.3363ZM27.3867 20.6367V26.2617C27.3867 26.8491 27.1534 27.4125 26.738 27.8279C26.3226 28.2432 25.7593 28.4766 25.1719 28.4766C24.5845 28.4766 24.0211 28.2432 23.6057 27.8279C23.1904 27.4125 22.957 26.8491 22.957 26.2617V20.6367C22.957 20.0493 23.1904 19.486 23.6057 19.0706C24.0211 18.6552 24.5845 18.4219 25.1719 18.4219C25.7593 18.4219 26.3226 18.6552 26.738 19.0706C27.1534 19.486 27.3867 20.0493 27.3867 20.6367ZM10.125 17.4614C10.1374 17.3503 10.1933 17.2486 10.2806 17.1788C10.3679 17.1089 10.4793 17.0765 10.5905 17.0887C12.9869 17.3546 15.4088 17.2836 17.7855 16.8778C19.7165 16.5486 21.6036 16.0006 23.4105 15.2445L23.1841 14.7579C23.1468 14.6771 23.1342 14.587 23.1479 14.499C23.1616 14.4111 23.2009 14.3291 23.261 14.2634C23.3211 14.1977 23.3992 14.1512 23.4856 14.1297C23.572 14.1082 23.6628 14.1127 23.7466 14.1427L25.0312 14.6109C25.1429 14.6523 25.2337 14.7361 25.2837 14.8441C25.3338 14.9521 25.3391 15.0756 25.2984 15.1875L24.8337 16.463C24.8031 16.5468 24.7483 16.6197 24.6763 16.6724C24.6042 16.7251 24.5182 16.7553 24.429 16.7592C24.3399 16.763 24.2516 16.7403 24.1753 16.694C24.099 16.6476 24.0382 16.5797 24.0005 16.4988L23.7727 16.0066C21.8964 16.7964 19.936 17.369 17.9297 17.7131C16.4511 17.9645 14.9541 18.0908 13.4543 18.0907C12.4676 18.0909 11.4818 18.0362 10.5012 17.9269C10.4458 17.9212 10.3922 17.9046 10.3433 17.8781C10.2944 17.8516 10.2512 17.8157 10.2163 17.7724C10.1813 17.7291 10.1552 17.6794 10.1396 17.626C10.1239 17.5726 10.119 17.5167 10.125 17.4614ZM8.61328 22.043C8.61328 21.4556 8.84663 20.8922 9.26199 20.4768C9.67736 20.0615 10.2407 19.8281 10.8281 19.8281C11.4155 19.8281 11.9789 20.0615 12.3943 20.4768C12.8096 20.8922 13.043 21.4556 13.043 22.043V26.2617C13.043 26.8491 12.8096 27.4125 12.3943 27.8279C11.9789 28.2432 11.4155 28.4766 10.8281 28.4766C10.2407 28.4766 9.67736 28.2432 9.26199 27.8279C8.84663 27.4125 8.61328 26.8491 8.61328 26.2617V22.043Z" fill="#2F80ED"/>
</g>
<defs>
<clipPath id="clip0_2402_3177">
<rect width="36" height="36" fill="white"/>
</clipPath>
</defs>
</svg>
